<svg xmlns="http://www.w3.org/2000/svg" viewBox="0 0 1882.59 593.85"><defs><style>.cls-1{fill:#fff;}</style></defs><g id="Layer_2" data-name="Layer 2"><g id="Layer_1-2" data-name="Layer 1"><rect class="cls-1" x="21.02" y="534.14" width="37.69" height="37.69" rx="2" transform="matrix(0.48, 0.88, -0.88, 0.48, 506.51, 253.61)"/><rect class="cls-1" x="190.55" y="537.47" width="46.23" height="46.23" rx="2" transform="matrix(-1, 0.04, -0.04, -1, 447.93, 1112.88)"/><rect class="cls-1" x="355.12" y="552.01" width="30.65" height="30.65" rx="2" transform="translate(1046.23 616.41) rotate(127.3)"/><rect class="cls-1" x="509.97" y="538.41" width="42.03" height="42.03" rx="2" transform="translate(630.17 -205.47) rotate(50.89)"/><rect class="cls-1" x="686.97" y="540.31" width="33.11" height="33.11" rx="2" transform="translate(293.98 1355.19) rotate(-101.21)"/><rect class="cls-1" x="840.55" y="550.93" width="36.26" height="36.26" rx="2" transform="translate(-156.66 742.93) rotate(-43.25)"/><rect class="cls-1" x="994.65" y="543.94" width="38.4" height="38.4" rx="2" transform="translate(-25.19 1078.33) rotate(-55.42)"/><rect class="cls-1" x="1179.8" y="544.8" width="39.99" height="39.99" rx="2" transform="translate(1876.99 -575.35) rotate(95.5)"/><rect class="cls-1" x="1327.24" y="530.99" width="34.75" height="34.75" rx="2" transform="translate(1421.55 1998.46) rotate(-115.22)"/><rect class="cls-1" x="1504.02" y="542.43" width="37.12" height="37.12" rx="2" transform="translate(-97.73 647.96) rotate(-23.3)"/><rect class="cls-1" x="1661.15" y="545.51" width="34.27" height="34.27" rx="2" transform="translate(3371.58 1078.37) rotate(178.41)"/><rect class="cls-1" x="1823.67" y="526.94" width="49.58" height="49.58" rx="2" transform="translate(1064.79 -1210.95) rotate(49.41)"/><rect class="cls-1" x="113.57" y="469.95" width="34.42" height="34.42" rx="2" transform="translate(-36.18 11.19) rotate(-4.3)"/><rect class="cls-1" x="270.83" y="459.93" width="35.12" height="35.12" rx="2" transform="translate(825.22 629.07) rotate(136.9)"/><rect class="cls-1" x="443.99" y="463.19" width="32.03" height="32.03" rx="2" transform="translate(956.49 920.5) rotate(175.46)"/><rect class="cls-1" x="599.89" y="474.79" width="37.51" height="37.51" rx="2" transform="translate(954.87 -222.87) rotate(76.56)"/><rect class="cls-1" x="748.9" y="454.21" width="49.75" height="49.75" rx="2" transform="translate(1462.2 -116.17) rotate(107.39)"/><rect class="cls-1" x="906.22" y="475.73" width="49.27" height="49.27" rx="2" transform="translate(621.51 -510.16) rotate(44.72)"/><rect class="cls-1" x="1089.62" y="481.38" width="35.04" height="35.04" rx="2" transform="translate(973.18 -708.04) rotate(59.41)"/><rect class="cls-1" x="1253.12" y="457.33" width="46.94" height="46.94" rx="2" transform="translate(2203.98 1481.21) rotate(-153.47)"/><rect class="cls-1" x="1413.2" y="462.4" width="31.68" height="31.68" rx="2" transform="translate(143.31 1264.22) rotate(-49.94)"/><rect class="cls-1" x="1571.74" y="459.83" width="38.77" height="38.77" rx="2" transform="translate(955.55 -1056.16) rotate(50.75)"/><rect class="cls-1" x="1747.5" y="460.81" width="43.72" height="43.72" rx="2" transform="translate(34.29 1076.91) rotate(-34.16)"/><rect class="cls-1" x="29.24" y="395.93" width="44.99" height="44.99" rx="2" transform="translate(-359.74 326.56) rotate(-70.37)"/><rect class="cls-1" x="178.36" y="403.16" width="31.98" height="31.98" rx="2" transform="translate(600.03 640.26) rotate(143.47)"/><rect class="cls-1" x="360.05" y="398.32" width="30.52" height="30.52" rx="2" transform="matrix(-0.56, 0.83, -0.83, -0.56, 927.75, 331.59)"/><rect class="cls-1" x="499.93" y="376.85" width="43.06" height="43.06" rx="2" transform="translate(-18.11 24.89) rotate(-2.69)"/><rect class="cls-1" x="675.19" y="392.75" width="30.22" height="30.22" rx="2" transform="translate(-74.3 649.22) rotate(-48.1)"/><rect class="cls-1" x="843.07" y="403.49" width="30.75" height="30.75" rx="2" transform="translate(-51.37 127.99) rotate(-8.28)"/><rect class="cls-1" x="1004.83" y="381.77" width="46.61" height="46.61" rx="2" transform="translate(2124.24 545.42) rotate(165.79)"/><rect class="cls-1" x="1171.96" y="382.96" width="30.12" height="30.12" rx="2" transform="translate(2385 761.71) rotate(178.35)"/><rect class="cls-1" x="1323.86" y="379.09" width="40.12" height="40.12" rx="2" transform="translate(-48.78 238.48) rotate(-9.96)"/><rect class="cls-1" x="1503.71" y="378.12" width="43.9" height="43.9" rx="2" transform="translate(118.23 1112) rotate(-41.53)"/><rect class="cls-1" x="1666.67" y="389.56" width="31.82" height="31.82" rx="2" transform="translate(50.83 982.44) rotate(-33.02)"/><rect class="cls-1" x="1817.25" y="395.03" width="41.54" height="41.54" rx="2" transform="translate(986.8 -1265.46) rotate(50.4)"/><rect class="cls-1" x="98.99" y="323.78" width="38.65" height="38.65" rx="2" transform="translate(313.6 649.01) rotate(166.47)"/><rect class="cls-1" x="274.2" y="327.92" width="30.65" height="30.65" rx="2" transform="translate(568.32 695.26) rotate(-178.23)"/><rect class="cls-1" x="437.92" y="323.3" width="41.14" height="41.14" rx="2" transform="translate(382.44 911.92) rotate(-119.25)"/><rect class="cls-1" x="597.95" y="324.73" width="41.02" height="41.02" rx="2" transform="translate(693.26 -359.09) rotate(66.89)"/><rect class="cls-1" x="750.01" y="326.54" width="43.69" height="43.69" rx="2" transform="translate(792.44 1194.97) rotate(-115.69)"/><rect class="cls-1" x="910.86" y="323.25" width="41.06" height="41.06" rx="2" transform="translate(920.85 -648.98) rotate(69.13)"/><rect class="cls-1" x="1087.56" y="310.2" width="47.25" height="47.25" rx="2" transform="translate(819.47 -789.15) rotate(58.72)"/><rect class="cls-1" x="1244.56" y="322.94" width="46.83" height="46.83" rx="2" transform="translate(1993.05 -750) rotate(108.2)"/><rect class="cls-1" x="1422.93" y="316.39" width="34.58" height="34.58" rx="2" transform="translate(386.56 1370.69) rotate(-57.59)"/><rect class="cls-1" x="1573.35" y="317.33" width="43.5" height="43.5" rx="2" transform="translate(893.88 -1133.2) rotate(52.53)"/><rect class="cls-1" x="1732.1" y="326.39" width="48.01" height="48.01" rx="2" transform="translate(779.18 -1150.37) rotate(45.65)"/><rect class="cls-1" x="15.82" y="248.08" width="39.32" height="39.32" rx="2" transform="translate(174.26 499.45) rotate(156.63)"/><rect class="cls-1" x="190.23" y="239.98" width="39.61" height="39.61" rx="2" transform="translate(-101.15 138.27) rotate(-29.71)"/><rect class="cls-1" x="344.48" y="249.64" width="32.15" height="32.15" rx="2" transform="translate(702.53 -23.51) rotate(103.39)"/><rect class="cls-1" x="525.45" y="245.39" width="34" height="34" rx="2" transform="matrix(-1, 0.09, -0.09, -1, 1107.2, 472.51)"/><rect class="cls-1" x="683.59" y="229.52" width="48.4" height="48.4" rx="2" transform="translate(692.35 1005.46) rotate(-108.54)"/><rect class="cls-1" x="845.7" y="234.98" width="43.51" height="43.51" rx="2" transform="translate(1719.43 560.95) rotate(-176.84)"/><rect class="cls-1" x="1000.11" y="244.26" width="34.53" height="34.53" rx="2" transform="translate(524.28 -666) rotate(47.59)"/><rect class="cls-1" x="1158.76" y="241.4" width="35.98" height="35.98" rx="2" transform="translate(1264.04 -942.44) rotate(81.72)"/><rect class="cls-1" x="1327.72" y="225.92" width="41.05" height="41.05" rx="2" transform="translate(1450.76 -1120.3) rotate(83.93)"/><rect class="cls-1" x="1505.35" y="229.49" width="34.95" height="34.95" rx="2" transform="translate(1625.53 1786.26) rotate(-103.03)"/><rect class="cls-1" x="1670.03" y="244.27" width="38.98" height="38.98" rx="2" transform="translate(2293.38 1863.57) rotate(-119.55)"/><rect class="cls-1" x="1831.36" y="233.72" width="32.41" height="32.41" rx="2" transform="translate(2459.77 -1511.09) rotate(101.47)"/><rect class="cls-1" x="95.89" y="163.61" width="48.83" height="48.83" rx="2" transform="translate(118.81 -35.19) rotate(32.23)"/><rect class="cls-1" x="267.26" y="180.35" width="34.04" height="34.04" rx="2" transform="translate(12.12 -16.4) rotate(3.38)"/><rect class="cls-1" x="437.81" y="165.14" width="42.14" height="42.14" rx="2" transform="translate(577.55 -294.59) rotate(81.78)"/><rect class="cls-1" x="605.57" y="170.11" width="36.94" height="36.94" rx="2" transform="matrix(-0.78, 0.62, -0.62, -0.78, 1229.54, -53)"/><rect class="cls-1" x="768.55" y="160.02" width="35.37" height="35.37" rx="2" transform="translate(259.58 -432.53) rotate(36.47)"/><rect class="cls-1" x="911.48" y="156.57" width="39.85" height="39.85" rx="2" transform="translate(393.63 -604.18) rotate(44.71)"/><rect class="cls-1" x="1095.73" y="158.05" width="36.48" height="36.48" rx="2" transform="translate(1975.32 -551.79) rotate(130.8)"/><rect class="cls-1" x="1256.61" y="160.16" width="45.92" height="45.92" rx="2" transform="translate(-6.87 56.99) rotate(-2.54)"/><rect class="cls-1" x="1409.74" y="176.96" width="43.86" height="43.86" rx="2" transform="translate(1139.63 1614.5) rotate(-86.25)"/><rect class="cls-1" x="1570.87" y="162.69" width="37.9" height="37.9" rx="2" transform="translate(133.53 844.77) rotate(-31)"/><rect class="cls-1" x="1755.6" y="173.32" width="37.81" height="37.81" rx="2" transform="translate(1856.67 1975.21) rotate(-98.82)"/><rect class="cls-1" x="7.47" y="93.68" width="45.9" height="45.9" rx="2" transform="translate(59.44 -0.36) rotate(28.55)"/><rect class="cls-1" x="192.02" y="79.08" width="44.56" height="44.56" rx="2" transform="translate(90.19 -100.62) rotate(33.12)"/><rect class="cls-1" x="356.01" y="72.14" width="47.63" height="47.63" rx="2" transform="translate(442.44 -290.77) rotate(85.02)"/><rect class="cls-1" x="523.63" y="93.76" width="32.72" height="32.72" rx="2" transform="translate(1.67 228.14) rotate(-23.89)"/><rect class="cls-1" x="668.77" y="84.08" width="41.12" height="41.12" rx="2" transform="translate(159.65 -348.76) rotate(31.93)"/><rect class="cls-1" x="841.26" y="82.21" width="42.31" height="42.31" rx="2" transform="translate(1691.19 363.29) rotate(-169.42)"/><rect class="cls-1" x="990.05" y="90.62" width="49.95" height="49.95" rx="2" transform="translate(448.18 965.5) rotate(-62.8)"/><rect class="cls-1" x="1165.36" y="78.05" width="46.17" height="46.17" rx="2" transform="translate(2355.21 -146.45) rotate(163.16)"/><rect class="cls-1" x="1333.68" y="76.71" width="41.01" height="41.01" rx="2" transform="translate(1068.43 1424.47) rotate(-81.96)"/><rect class="cls-1" x="1502.6" y="92.71" width="44.01" height="44.01" rx="2" transform="translate(1043.39 1565.93) rotate(-75.96)"/><rect class="cls-1" x="1659.61" y="80.5" width="34.7" height="34.7" rx="2" transform="translate(942.34 -1412.82) rotate(60.73)"/><rect class="cls-1" x="1826.5" y="80.11" width="48.89" height="48.89" rx="2" transform="translate(3689.4 -134.33) rotate(169.36)"/><rect class="cls-1" x="107.72" y="7.28" width="47.7" height="47.7" rx="2" transform="translate(26.23 -53.62) rotate(25.5)"/><rect class="cls-1" x="270.29" y="15.92" width="46.16" height="46.16" rx="2" transform="translate(262.37 333.32) rotate(-91.56)"/><rect class="cls-1" x="414.63" y="14.15" width="48.18" height="48.18" rx="2" transform="translate(782.91 -236.46) rotate(136.43)"/><rect class="cls-1" x="587.81" y="7.49" width="44.97" height="44.97" rx="2" transform="translate(514.14 633.39) rotate(-83.76)"/><rect class="cls-1" x="763.71" y="15.19" width="43.53" height="43.53" rx="2" transform="translate(-0.71 52.7) rotate(-3.84)"/><rect class="cls-1" x="932.57" y="9.43" width="42.28" height="42.28" rx="2" transform="translate(1318.48 -851.15) rotate(110.64)"/><rect class="cls-1" x="1093.24" y="7.36" width="40.61" height="40.61" rx="2" transform="translate(123.73 -483.23) rotate(25.88)"/><rect class="cls-1" x="1254.95" y="19.72" width="39.29" height="39.29" rx="2" transform="translate(2299.14 798.61) rotate(-145.23)"/><rect class="cls-1" x="1417.6" y="21.95" width="38.5" height="38.5" rx="2" transform="translate(2859.19 -166.62) rotate(170.04)"/><rect class="cls-1" x="1592.51" y="31.55" width="30.49" height="30.49" rx="2" transform="translate(2053.19 -1498.73) rotate(104.41)"/><rect class="cls-1" x="1737.68" y="12.7" width="33.69" height="33.69" rx="2" transform="matrix(0.06, 1, -1, 0.06, 1671.92, -1723.29)"/></g></g></svg>