<svg xmlns="http://www.w3.org/2000/svg" viewBox="0 0 1921.22 734.84"><defs><style>.cls-1{fill:none;stroke:#fff;stroke-miterlimit:10;stroke-width:2px;}</style></defs><g id="Layer_2" data-name="Layer 2"><g id="Layer_1-2" data-name="Layer 1"><path class="cls-1" d="M.41.91,273.69,124.65A780.41,780.41,0,0,0,753.49,178L1477.61,28.41C1609.52,1.16,1719.35,130.6,1671,256.31h0a170.31,170.31,0,0,0,20.85,160.78l228.56,316.75"/><path class="cls-1" d="M.41,16.84l272.44,121c147,66.57,319.67,84.84,477.71,52.19l721-146.33c129-26.66,242.7,100,195.4,222.94h0c-20.2,52.51-9.65,111.67,23.27,157.29l230.23,309.86"/><path class="cls-1" d="M.41,32.78,272,151.13c143.74,65.09,321.1,83,475.62,51L1465.42,59.08c126.17-26.06,243.65,97.74,197.4,218h0c-19.75,51.34-6.5,109.18,25.68,153.78l231.91,303"/><path class="cls-1" d="M.41,48.71,271.16,164.38c140.48,63.6,322.53,81.06,473.55,49.87L1459.32,74.42c123.31-25.47,244.6,95.52,199.4,213h0c-19.29,50.17-3.34,106.7,28.11,150.29l233.58,296.09"/><path class="cls-1" d="M.41,64.64l269.91,113c137.21,62.13,324,79.18,471.46,48.71L1453.22,89.75c120.44-24.88,245.56,93.3,201.41,208.09h0c-18.85,49-.19,104.21,30.53,146.79l235.25,289.21"/><path class="cls-1" d="M.41,80.58,269.48,190.86c133.94,60.65,325.38,77.3,469.37,47.55l708.28-133.32c117.57-24.29,246.5,91.08,203.41,203.13h0c-18.4,47.84,3,101.73,33,143.3l236.92,282.32"/><path class="cls-1" d="M.41,96.51l268.23,107.6c130.68,59.17,326.81,75.41,467.29,46.39L1441,120.42c114.7-23.69,247.46,88.86,205.41,198.18h0c-18,46.67,6.12,99.25,35.38,139.81l238.59,275.43"/><path class="cls-1" d="M.41,112.44,267.8,217.35C395.21,275,596,290.87,733,262.58l701.93-126.82c111.84-23.1,248.42,86.64,207.42,193.22h0c-17.5,45.51,9.27,96.77,37.8,136.31l240.26,268.55"/><path class="cls-1" d="M.41,128.38,267,230.59c124.14,56.21,329.66,71.64,463.11,44.07l698.77-123.57c109-22.51,249.36,84.42,209.42,188.27h0c-17,44.34,12.42,94.29,40.21,132.82l241.94,261.66"/><path class="cls-1" d="M.41,144.31l265.71,99.53c120.87,54.73,331.08,69.75,461,42.91l695.6-120.32c106.1-21.92,250.32,82.19,211.43,183.31h0c-16.61,43.18,15.56,91.81,42.63,129.32l243.61,254.78"/><path class="cls-1" d="M.41,160.24l264.87,96.84c117.6,53.25,332.51,67.87,458.94,41.75l692.42-117.06c103.24-21.33,251.28,80,213.43,178.35h0c-16.15,42,18.72,89.33,45.06,125.83l245.28,247.89"/><path class="cls-1" d="M.41,176.18l264,94.14c114.34,51.78,333.93,66,456.85,40.6L1410.55,197.1c100.36-20.73,252.22,77.75,215.43,173.4h0c-15.71,40.83,21.87,86.84,47.48,122.33l247,241"/><path class="cls-1" d="M.41,192.11l263.18,91.46C374.67,333.86,599,347.67,718.36,323l686.09-110.56C1502,192.3,1657.63,288,1621.89,380.89h0c-15.26,39.67,25,84.36,49.9,118.83l248.62,234.12"/><path class="cls-1" d="M.41,208l262.34,88.77C370.56,345.63,599.54,359,715.44,335.08l682.91-107.31c94.63-19.55,254.13,73.31,219.45,163.5h0c-14.81,38.5,28.17,81.88,52.31,115.34l250.3,227.23"/><path class="cls-1" d="M.41,224l261.5,86.07c104.54,47.34,338.22,60.33,450.6,37.12l679.75-104.06c91.76-19,255.08,71.08,221.44,158.54h0c-14.36,37.34,31.33,79.4,54.74,111.84l252,220.35"/><path class="cls-1" d="M.41,239.91,261.07,323.3c101.27,45.85,339.64,58.44,448.51,35.95l676.58-100.81c88.89-18.36,256,68.87,223.45,153.59h0c-13.91,36.17,34.48,76.92,57.16,108.35l253.64,213.46"/><path class="cls-1" d="M.41,255.84l259.82,80.7c98,44.38,341.07,56.56,446.43,34.79l673.4-97.55c86-17.77,257,66.64,225.46,148.63h0c-13.47,35,37.63,74.44,59.58,104.86l255.31,206.57"/><path class="cls-1" d="M.41,271.78l259,78c94.74,42.89,342.49,54.67,444.34,33.63L1374,289.11c83.16-17.17,257.94,64.43,227.45,143.68h0c-13,33.84,40.79,72,62,101.36l257,199.69"/><path class="cls-1" d="M.41,287.71,258.55,363C350,404.45,602.47,415.81,700.8,395.5l667.07-91.05c80.29-16.59,258.89,62.2,229.46,138.72h0c-12.56,32.67,43.94,69.48,64.42,97.87l258.66,192.8"/><path class="cls-1" d="M.41,303.64l257.3,72.63c88.2,39.94,345.34,50.9,440.16,31.31l663.9-87.79c77.43-16,259.85,60,231.47,133.76h0c-12.12,31.51,47.09,67,66.84,94.37l260.33,185.92"/><path class="cls-1" d="M.41,319.58l256.46,69.94C341.8,428,603.64,438.53,695,419.67l660.72-84.55c74.56-15.4,260.81,57.76,233.48,128.81h0c-11.67,30.33,50.24,64.51,69.26,90.87l262,179"/><path class="cls-1" d="M.41,335.51,256,402.76c81.67,37,348.19,47.13,436,29l657.56-81.29c71.69-14.81,261.75,55.53,235.47,123.86h0c-11.22,29.17,53.4,62,71.69,87.38l263.67,172.14"/><path class="cls-1" d="M.41,351.44,255.18,416c78.41,35.5,349.63,45.25,433.91,27.84l654.39-78c68.82-14.21,262.71,53.32,237.48,118.91h0c-10.77,28,56.55,59.55,74.11,83.88l265.34,165.26"/><path class="cls-1" d="M.41,367.38l253.93,61.87c75.14,34,351,43.36,431.83,26.67l651.21-74.79c66-13.63,263.66,51.09,239.49,114h0c-10.32,26.84,59.7,57.07,76.53,80.39l267,158.37"/><path class="cls-1" d="M.41,383.31,253.5,442.49C325.37,475,606,484,683.24,468l648.05-71.54c63.08-13,264.61,48.87,241.49,109h0c-9.88,25.67,62.85,54.59,78.94,76.89l268.69,151.49"/><path class="cls-1" d="M.41,399.24l252.25,56.49c68.61,31.07,353.9,39.59,427.65,24.36l644.88-68.29c60.22-12.44,265.57,46.65,243.49,104h0c-9.42,24.5,66,52.11,81.37,73.4l270.36,144.6"/><path class="cls-1" d="M.41,415.18,251.82,469c65.34,29.58,355.33,37.7,425.57,23.19l641.7-65c57.36-11.84,266.52,44.43,245.5,99.09h0c-9,23.34,69.16,49.63,83.79,69.9l272,137.72"/><path class="cls-1" d="M.41,431.11,251,482.22c62.07,28.1,356.75,35.82,423.48,22L1313,442.47c54.48-11.26,267.47,42.21,247.5,94.13h0c-8.53,22.17,72.31,47.15,86.21,66.41l273.7,130.83"/><path class="cls-1" d="M.41,447l249.73,48.42c58.8,26.63,358.18,33.94,421.39,20.88L1306.9,457.8c51.62-10.66,268.43,40,249.51,89.18h0c-8.07,21,75.47,44.67,88.64,62.92l275.37,123.94"/><path class="cls-1" d="M.41,463,249.3,508.71c55.53,25.14,359.6,32,419.3,19.71l632.2-55.28c48.75-10.07,269.38,37.76,251.51,84.22h0c-7.63,19.84,78.62,42.19,91,59.42l277.05,117.06"/><path class="cls-1" d="M.41,478.91l248.05,43c52.27,23.67,361,30.16,417.22,18.55l629-52C1340.59,479,1565,524,1548.22,567.75h0c-7.18,18.67,81.77,39.7,93.47,55.92l278.72,110.17"/><path class="cls-1" d="M.41,494.84l247.2,40.35c49,22.19,362.46,28.28,415.14,17.4l625.86-48.78c43-8.88,271.28,33.32,255.52,74.32h0c-6.73,17.5,84.92,37.22,95.89,52.42l280.39,103.29"/><path class="cls-1" d="M.41,510.78l246.36,37.66c45.74,20.7,363.89,26.39,413.05,16.23l622.69-45.52c40.15-8.3,272.24,31.1,257.52,69.36h0c-6.28,16.33,88.08,34.74,98.32,48.93l282.06,96.4"/><path class="cls-1" d="M.41,526.71l245.52,35c42.47,19.23,365.31,24.51,411,15.08l619.52-42.28c37.28-7.7,273.19,28.88,259.52,64.41h0c-5.83,15.17,91.23,32.26,100.74,45.44l283.73,89.51"/><path class="cls-1" d="M.41,542.64l244.68,32.28c39.2,17.75,366.74,22.63,408.88,13.92l616.35-39c34.41-7.11,274.14,26.65,261.53,59.45h0c-5.39,14,94.38,29.78,103.15,41.94l285.41,82.63"/><path class="cls-1" d="M.41,558.58l243.84,29.59C280.19,604.44,612.41,608.9,651,600.92l613.18-35.77c31.55-6.51,275.1,24.44,263.54,54.5h0c-4.94,12.84,97.53,27.3,105.57,38.45l287.08,75.74"/><path class="cls-1" d="M.41,574.51l243,26.9C276.08,616.2,613,620.26,648.12,613l610-32.52c28.67-5.92,276,22.21,265.53,49.54h0c-4.48,11.67,100.69,24.82,108,35l288.75,68.86"/><path class="cls-1" d="M.41,590.44l242.16,24.21c29.4,13.32,371,17,402.62,10.44L1252,595.82c25.81-5.33,277,20,267.54,44.59h0c-4,10.51,103.84,22.34,110.42,31.46l290.42,62"/><path class="cls-1" d="M.41,606.38,241.73,627.9c26.13,11.83,372.44,15.08,400.53,9.27l603.67-26c22.94-4.74,278,17.77,269.55,39.63h0c-3.59,9.34,107,19.86,112.84,28l292.09,55.08"/><path class="cls-1" d="M.41,622.31l240.48,18.83c22.86,10.35,373.86,13.2,398.44,8.12l600.51-22.76c20.07-4.15,278.9,15.55,271.55,34.68h0c-3.14,8.16,110.14,17.37,115.27,24.46l293.76,48.2"/><path class="cls-1" d="M.41,638.24,240,654.38c19.61,8.88,375.3,11.31,396.37,7l597.33-19.51c17.21-3.55,279.86,13.33,273.55,29.73h0c-2.69,7,113.29,14.89,117.68,21l295.44,41.31"/><path class="cls-1" d="M.41,654.18,239.2,667.63c16.34,7.39,376.72,9.42,394.28,5.8l594.16-16.26c14.34-3,280.82,11.1,275.56,24.77h0c-2.24,5.83,116.44,12.41,120.1,17.47l297.11,34.43"/><path class="cls-1" d="M.41,670.11l238,10.76c13.07,5.92,378.15,7.54,392.19,4.64l591-13c11.47-2.37,281.76,8.89,277.56,19.82h0c-1.8,4.67,119.59,9.92,122.52,14l298.78,27.54"/><path class="cls-1" d="M.41,686l237.11,8.07c9.8,4.44,379.57,5.66,390.11,3.48l587.82-9.75c8.6-1.78,282.72,6.66,279.56,14.86h0c-1.34,3.5,122.75,7.44,125,10.49l300.45,20.65"/><path class="cls-1" d="M.41,702l236.27,5.38c6.53,3,381,3.77,388,2.32l584.65-6.51c5.74-1.18,283.67,4.45,281.57,9.91h0c-.9,2.34,125.9,5,127.37,7l302.12,13.77"/><path class="cls-1" d="M.41,717.91l235.43,2.69c3.27,1.48,382.42,1.89,385.93,1.16l581.49-3.25c2.86-.59,284.62,2.22,283.57,5h0c-.45,1.17,129.05,2.48,129.78,3.5l303.8,6.88"/><line class="cls-1" x1="0.41" y1="733.84" x2="1920.41" y2="733.84"/></g></g></svg>