<svg xmlns="http://www.w3.org/2000/svg" viewBox="0 0 148.84 41.32"><defs><style>.cls-1,.cls-2,.cls-3{fill:#1d1d1b;}.cls-2,.cls-4{opacity:0.6;}.cls-3{opacity:0.8;}</style></defs><g id="Layer_2" data-name="Layer 2"><g id="Layer_1-2" data-name="Layer 1"><path class="cls-1" d="M71.45,6.84a5.82,5.82,0,0,0-4.26-1.79H55.09v27.2h6V23.16h6.06a6.08,6.08,0,0,0,6-6v-6A5.84,5.84,0,0,0,71.45,6.84Zm-4.26,8.77a3.07,3.07,0,0,1-3,3h-3v-9h3a2.94,2.94,0,0,1,2.13.89,2.87,2.87,0,0,1,.9,2.12Z"/><path class="cls-2" d="M128.94,5.05a7,7,0,0,1,2.92,4.54h4.88V32.25h6.06V9.59h6V5.05Z"/><path class="cls-3" d="M130.7,17.12V10.84a5.77,5.77,0,0,0-5.77-5.77H112.56v0H92.66a7.07,7.07,0,0,1,2.92,4.54h4.88V32.25h6.06V9.59h6V32.27h6V24c6.08,0,6.08,2.44,6,8.23h6.06V26.59s0-5-4.6-5A4.4,4.4,0,0,0,130.7,17.12Zm-6-1.51a3.07,3.07,0,0,1-3,3h-3v-9h3a2.94,2.94,0,0,1,2.13.89,2.87,2.87,0,0,1,.9,2.12Z"/><path class="cls-1" d="M94.42,17.12V10.84a5.77,5.77,0,0,0-5.77-5.77H76.27v27.2h6V24c6.08,0,6.08,2.44,6,8.23h6.06V26.59s0-5-4.61-5A4.4,4.4,0,0,0,94.42,17.12Zm-6-1.51a3.07,3.07,0,0,1-3,3h-3v-9h3a2.94,2.94,0,0,1,2.13.89,2.87,2.87,0,0,1,.9,2.12Z"/><g class="cls-4"><path class="cls-1" d="M16.12,9.07c.36,0,.72,0,1.07,0V3.59H15.4v5.5Z"/><path class="cls-1" d="M20.77,9.75V3.59H19V9.33A17.28,17.28,0,0,1,20.77,9.75Z"/><path class="cls-1" d="M24.35,11.33V3.59H22.56v6.82A15.88,15.88,0,0,1,24.35,11.33Z"/><path class="cls-1" d="M27.93,14.22V4a13.11,13.11,0,0,0-1.79-.3v8.91A16.52,16.52,0,0,1,27.93,14.22Z"/><path class="cls-1" d="M31.51,20.36V5.41a13,13,0,0,0-1.79-.89v12A16.16,16.16,0,0,1,31.51,20.36Z"/><path class="cls-1" d="M35.08,28.61v-20A13.28,13.28,0,0,0,33.3,6.7V28.61Z"/></g><path class="cls-1" d="M25.66,0H9.13V10.66A16.13,16.13,0,1,0,30.64,32.21h10.7V15.68A15.68,15.68,0,0,0,25.66,0Zm2.52,28.61a12.7,12.7,0,0,1-1,2.44L23,28.64v-6.9L24.35,21l1.79-1,1.06-.61A13.55,13.55,0,0,1,27.93,21a12.44,12.44,0,0,1,.72,4.2A12.78,12.78,0,0,1,28.18,28.61ZM12.82,25.19A3.28,3.28,0,0,1,15.4,22a2.94,2.94,0,0,1,.72-.08,3.12,3.12,0,0,1,1.07.18A3.26,3.26,0,0,1,19,23.54a3.19,3.19,0,0,1,.45,1.65A3.22,3.22,0,0,1,19,26.85a3.3,3.3,0,0,1-1.79,1.47,3.38,3.38,0,0,1-1.07.18,3.53,3.53,0,0,1-.72-.08A3.3,3.3,0,0,1,12.82,25.19Zm8-9-1.2,2.08h-6.9l-2.4-4.17a12.82,12.82,0,0,1,2.45-1,13.17,13.17,0,0,1,2.68-.45l.72,0c.36,0,.72,0,1.07.05A13.09,13.09,0,0,1,19,13a12.89,12.89,0,0,1,1.79.57,10.23,10.23,0,0,1,1.21.56Zm-17.18,9a12.4,12.4,0,0,1,1.46-5.85l4.08,2.35.09,0v6.9l-.09.05L5.05,31.05A12.44,12.44,0,0,1,3.59,25.19ZM16.12,37.72a12.39,12.39,0,0,1-5.85-1.45l2.34-4.06.06-.11h6.9l.06.11L22,36.27A12.43,12.43,0,0,1,16.12,37.72Zm21.62-9.11H31.88a16,16,0,0,0-2.16-12.08,16.76,16.76,0,0,0-1.79-2.31,16.52,16.52,0,0,0-1.79-1.66,16.45,16.45,0,0,0-3.58-2.15,18.21,18.21,0,0,0-1.79-.66A17.28,17.28,0,0,0,19,9.33a14.84,14.84,0,0,0-1.79-.22c-.35,0-.71,0-1.07,0l-.72,0a16.93,16.93,0,0,0-2.68.34V3.59H24.93a12.1,12.1,0,0,1,1.21.06,13.11,13.11,0,0,1,1.79.3,13.8,13.8,0,0,1,1.79.57,13,13,0,0,1,1.79.89,12.6,12.6,0,0,1,3.57,3.18,12.74,12.74,0,0,1,2.66,7.81Z"/></g></g></svg>